<svg width="18" height="17" viewBox="0 0 18 17" fill="none" xmlns="http://www.w3.org/2000/svg">
<path d="M10.5757 16.2581C10.3601 16.2581 10.1534 16.1724 10.0009 16.02C9.84847 15.8675 9.76283 15.6608 9.76283 15.4452V9.75484C9.76283 9.53924 9.84847 9.33248 10.0009 9.18003C10.1534 9.02758 10.3601 8.94194 10.5757 8.94194H16.2661C16.4816 8.94194 16.6884 9.02758 16.8409 9.18003C16.9933 9.33248 17.079 9.53924 17.079 9.75484V15.4452C17.079 15.6608 16.9933 15.8675 16.8409 16.02C16.6884 16.1724 16.4816 16.2581 16.2661 16.2581H10.5757ZM11.3886 14.6323H15.4532V10.5677H11.3886V14.6323ZM1.6338 16.2581C1.4182 16.2581 1.21143 16.1724 1.05899 16.02C0.906537 15.8675 0.820892 15.6608 0.820892 15.4452V9.75484C0.820892 9.53924 0.906537 9.33248 1.05899 9.18003C1.21143 9.02758 1.4182 8.94194 1.6338 8.94194H7.32412C7.53971 8.94194 7.74648 9.02758 7.89893 9.18003C8.05138 9.33248 8.13702 9.53924 8.13702 9.75484V15.4452C8.13702 15.6608 8.05138 15.8675 7.89893 16.02C7.74648 16.1724 7.53971 16.2581 7.32412 16.2581H1.6338ZM2.4467 14.6323H6.51121V10.5677H2.4467V14.6323ZM10.5757 7.31613C10.3601 7.31613 10.1534 7.23048 10.0009 7.07804C9.84847 6.92559 9.76283 6.71882 9.76283 6.50323V0.812903C9.76283 0.597308 9.84847 0.390542 10.0009 0.238093C10.1534 0.0856443 10.3601 0 10.5757 0H16.2661C16.4816 0 16.6884 0.0856443 16.8409 0.238093C16.9933 0.390542 17.079 0.597308 17.079 0.812903V6.50323C17.079 6.71882 16.9933 6.92559 16.8409 7.07804C16.6884 7.23048 16.4816 7.31613 16.2661 7.31613H10.5757ZM11.3886 5.69032H15.4532V1.62581H11.3886V5.69032ZM1.6338 7.31613C1.4182 7.31613 1.21143 7.23048 1.05899 7.07804C0.906537 6.92559 0.820892 6.71882 0.820892 6.50323V0.812903C0.820892 0.597308 0.906537 0.390542 1.05899 0.238093C1.21143 0.0856443 1.4182 0 1.6338 0H7.32412C7.53971 0 7.74648 0.0856443 7.89893 0.238093C8.05138 0.390542 8.13702 0.597308 8.13702 0.812903V6.50323C8.13702 6.71882 8.05138 6.92559 7.89893 7.07804C7.74648 7.23048 7.53971 7.31613 7.32412 7.31613H1.6338ZM2.4467 5.69032H6.51121V1.62581H2.4467V5.69032Z" fill="#06152B"/>
</svg>
