<svg width="21" height="18" viewBox="0 0 21 18" fill="none" xmlns="http://www.w3.org/2000/svg">
<path d="M2.44652 17.361C1.79974 17.361 1.17944 17.1041 0.722095 16.6467C0.264748 16.1894 0.0078125 15.5691 0.0078125 14.9223V2.72875C0.0078125 2.08196 0.264748 1.46165 0.722095 1.00431C1.17944 0.54696 1.79974 0.290039 2.44652 0.290039H17.8917C18.5385 0.290039 19.1588 0.54696 19.6161 1.00431C20.0735 1.46165 20.3304 2.08196 20.3304 2.72875V14.9223C20.3304 15.5691 20.0735 16.1894 19.6161 16.6467C19.1588 17.1041 18.5385 17.361 17.8917 17.361H2.44652ZM17.8917 15.7352C18.1073 15.7352 18.314 15.6495 18.4665 15.4971C18.6189 15.3446 18.7046 15.1379 18.7046 14.9223V9.88229H16.0391L14.0483 15.7352H17.8917ZM1.63362 2.72875V14.9223C1.63362 15.1379 1.71926 15.3446 1.87171 15.4971C2.02416 15.6495 2.23093 15.7352 2.44652 15.7352H11.9802L8.13684 4.43583L6.46877 9.33686C6.4129 9.49667 6.30854 9.63501 6.17024 9.73265C6.03194 9.83029 5.86661 9.88234 5.69732 9.88149H2.44652C2.33982 9.8849 2.23352 9.86684 2.13393 9.82836C2.03435 9.78988 1.94352 9.73175 1.86683 9.65748C1.79015 9.5832 1.72917 9.49426 1.68753 9.39596C1.64589 9.29765 1.62443 9.19202 1.62443 9.08526C1.62443 8.9785 1.64589 8.87282 1.68753 8.77452C1.72917 8.67622 1.79015 8.58727 1.86683 8.51299C1.94352 8.43872 2.03435 8.38065 2.13393 8.34217C2.23352 8.30369 2.33982 8.28562 2.44652 8.28903H5.11284L7.28167 1.91585H2.44652C2.23093 1.91585 2.02416 2.0015 1.87171 2.15395C1.71926 2.3064 1.63362 2.51315 1.63362 2.72875ZM13.0143 13.7379L14.6823 8.83689C14.7382 8.67708 14.8426 8.53869 14.9809 8.44105C15.1192 8.34341 15.2845 8.29141 15.4538 8.29225H18.7054V2.72875C18.7054 2.51315 18.6198 2.3064 18.4673 2.15395C18.3149 2.0015 18.1081 1.91585 17.8925 1.91585H8.99202L13.0143 13.7379Z" fill="white"/>
</svg>
