<svg xmlns="http://www.w3.org/2000/svg" width="21" height="18" viewBox="0 0 21 18" fill="none">
  <path d="M2.63819 17.8574C1.9914 17.8574 1.37111 17.6005 0.913761 17.1431C0.456414 16.6858 0.199478 16.0655 0.199478 15.4187V3.22513C0.199478 2.57835 0.456414 1.95804 0.913761 1.50069C1.37111 1.04334 1.9914 0.786423 2.63819 0.786423H18.0833C18.7301 0.786423 19.3504 1.04334 19.8078 1.50069C20.2651 1.95804 20.5221 2.57835 20.5221 3.22513V15.4187C20.5221 16.0655 20.2651 16.6858 19.8078 17.1431C19.3504 17.6005 18.7301 17.8574 18.0833 17.8574H2.63819ZM18.0833 16.2316C18.2989 16.2316 18.5057 16.1459 18.6582 15.9935C18.8106 15.841 18.8963 15.6343 18.8963 15.4187V10.3787H16.2307L14.2399 16.2316H18.0833ZM1.82528 3.22513V15.4187C1.82528 15.6343 1.91093 15.841 2.06338 15.9935C2.21583 16.1459 2.42259 16.2316 2.63819 16.2316H12.1719L8.32851 4.93221L6.66043 9.83325C6.60457 9.99306 6.5002 10.1314 6.36191 10.229C6.22361 10.3267 6.05828 10.3787 5.88899 10.3779H2.63819C2.53148 10.3813 2.42518 10.3632 2.3256 10.3247C2.22602 10.2863 2.13519 10.2281 2.0585 10.1539C1.98181 10.0796 1.92084 9.99064 1.8792 9.89234C1.83756 9.79404 1.8161 9.6884 1.8161 9.58165C1.8161 9.47489 1.83756 9.36921 1.8792 9.2709C1.92084 9.1726 1.98181 9.08365 2.0585 9.00938C2.13519 8.9351 2.22602 8.87703 2.3256 8.83855C2.42518 8.80007 2.53148 8.782 2.63819 8.78541H5.30451L7.47334 2.41223H2.63819C2.42259 2.41223 2.21583 2.49789 2.06338 2.65033C1.91093 2.80278 1.82528 3.00954 1.82528 3.22513ZM13.2059 14.2343L14.874 9.33327C14.9299 9.17346 15.0342 9.03507 15.1725 8.93744C15.3108 8.8398 15.4762 8.78779 15.6455 8.78864H18.8971V3.22513C18.8971 3.00954 18.8114 2.80278 18.659 2.65033C18.5065 2.49789 18.2998 2.41223 18.0842 2.41223H9.18368L13.2059 14.2343Z" fill="#06152B"/>
</svg>