<svg xmlns="http://www.w3.org/2000/svg" width="19" height="19" viewBox="0 0 19 19" fill="none">
  <path d="M8.53386 18.3643C6.56131 18.1033 4.7284 17.2039 3.31503 15.8034C1.90166 14.4029 0.985519 12.5783 0.706515 10.6082C0.427511 8.63814 0.800978 6.6309 1.76988 4.89301C2.73879 3.15512 4.24988 1.78211 6.07238 0.983665C6.27204 0.904871 6.49448 0.906652 6.69284 0.988627C6.89121 1.0706 7.05001 1.22636 7.13579 1.42311C7.22158 1.61986 7.22764 1.84222 7.1527 2.04336C7.07777 2.24449 6.92769 2.4087 6.73409 2.50136C5.61757 2.9862 4.63688 3.73728 3.87785 4.68889C3.11882 5.6405 2.60456 6.76363 2.38009 7.96C2.15562 9.15637 2.22777 10.3895 2.59022 11.5516C2.95268 12.7136 3.5944 13.7691 4.45923 14.6257C5.32406 15.4823 6.38564 16.1139 7.55108 16.4652C8.71653 16.8166 9.95031 16.8769 11.1445 16.641C12.3387 16.4051 13.4568 15.8802 14.4011 15.1121C15.3454 14.344 16.0871 13.3562 16.5613 12.2351C16.6031 12.1344 16.6645 12.043 16.7418 11.9661C16.8191 11.8893 16.9108 11.8284 17.0118 11.7872C17.1127 11.7459 17.2207 11.725 17.3298 11.7257C17.4388 11.7263 17.5466 11.7486 17.647 11.7911C17.7474 11.8336 17.8384 11.8955 17.9147 11.9733C17.9911 12.0512 18.0513 12.1433 18.0919 12.2445C18.1325 12.3457 18.1527 12.4539 18.1513 12.5629C18.1499 12.6719 18.127 12.7796 18.0838 12.8797C17.3129 14.7138 15.9608 16.2439 14.2356 17.2348C12.5103 18.2257 10.5074 18.6226 8.53467 18.3643H8.53386ZM9.71094 10.1638C9.60231 10.1638 9.49474 10.1424 9.39438 10.1008C9.29403 10.0592 9.20285 9.99819 9.12607 9.92133C9.04929 9.84448 8.98841 9.75326 8.94692 9.65286C8.90542 9.55247 8.88411 9.44488 8.88422 9.33624V1.05519C8.88411 0.946513 8.90541 0.838882 8.9469 0.73844C8.98839 0.637998 9.04925 0.546715 9.12602 0.469796C9.20279 0.392876 9.29396 0.331823 9.39432 0.290137C9.49468 0.248451 9.60227 0.226959 9.71094 0.226852C12.1243 0.230084 14.4377 1.19139 16.1426 2.89952C17.8476 4.60766 18.8046 6.92284 18.8033 9.33624C18.8034 9.44488 18.7821 9.55247 18.7406 9.65286C18.6991 9.75326 18.6382 9.84448 18.5614 9.92133C18.4846 9.99819 18.3935 10.0592 18.2931 10.1008C18.1927 10.1424 18.0852 10.1638 17.9765 10.1638H9.71094ZM10.5377 8.50788H17.1043C16.9182 6.8291 16.1668 5.26348 14.9736 4.06802C13.7803 2.87256 12.2161 2.1183 10.5377 1.92907V8.50788Z" fill="#06152B"/>
</svg>