<svg xmlns="http://www.w3.org/2000/svg" width="19" height="16" viewBox="0 0 19 16" fill="none">
  <path d="M2.63819 15.071C1.9914 15.071 1.37111 14.8141 0.913761 14.3568C0.456414 13.8994 0.199478 13.2791 0.199478 12.6323V8.56782C0.199478 8.5605 0.199478 8.554 0.199478 8.54668C0.199478 8.54099 0.199478 8.53451 0.199478 8.52882C0.199478 8.52313 0.199478 8.5166 0.199478 8.51091V8.5052V8.48977V8.48327V8.46948V8.4597V8.44914V8.43614V8.42879V8.41257C0.211287 8.35666 0.228998 8.30215 0.252316 8.24998L3.07309 1.902C3.26375 1.46513 3.57825 1.09373 3.97772 0.833675C4.37719 0.573622 4.84411 0.436331 5.32077 0.438784H12.9621C13.4346 0.438461 13.897 0.575428 14.2932 0.83303C14.6893 1.09063 15.0021 1.45775 15.1935 1.88979L18.0037 8.21584C18.0563 8.32572 18.0835 8.446 18.0833 8.56782V12.6323C18.0833 13.2791 17.8264 13.8994 17.3691 14.3568C16.9117 14.8141 16.2914 15.071 15.6446 15.071H2.63819ZM1.82528 12.6323C1.82528 12.8479 1.91093 13.0547 2.06338 13.2071C2.21583 13.3596 2.42259 13.4452 2.63819 13.4452H15.6446C15.8602 13.4452 16.067 13.3596 16.2194 13.2071C16.3719 13.0547 16.4575 12.8479 16.4575 12.6323V9.38072H12.8279L11.446 11.4577C11.3715 11.5693 11.2705 11.6608 11.1521 11.7239C11.0337 11.787 10.9014 11.8199 10.7672 11.8194H7.51561C7.38167 11.8196 7.24977 11.7866 7.13164 11.7235C7.0135 11.6604 6.91279 11.5691 6.83846 11.4577L5.4549 9.38072H1.82528V12.6323ZM5.8898 7.75491C6.0236 7.75489 6.15533 7.78791 6.27331 7.85102C6.3913 7.91412 6.49188 8.00536 6.56614 8.11666L7.94807 10.1928H10.3299L11.7118 8.11666C11.7865 8.00467 11.8879 7.91297 12.0068 7.84983C12.1257 7.78669 12.2584 7.75409 12.393 7.75491H16.0202L13.7075 2.55231C13.6442 2.40728 13.5399 2.2839 13.4075 2.19726C13.2751 2.11062 13.1203 2.06451 12.9621 2.06459H5.32077C5.16326 2.06448 5.00911 2.11015 4.87706 2.19602C4.74501 2.28189 4.64075 2.40423 4.57696 2.54824L2.26344 7.75491H5.8898Z" fill="#06152B"/>
</svg>