<svg xmlns="http://www.w3.org/2000/svg" width="26" height="26" viewBox="0 0 26 26" fill="none">
  <path fill-rule="evenodd" clip-rule="evenodd" d="M4.21087 0.0689294C3.99343 0.156135 3.82098 0.328666 3.43172 0.848393C3.0853 1.31093 3.02386 1.47361 3.081 1.77743C3.13006 2.03849 3.29708 2.21381 3.77786 2.509L4.16458 2.74644L4.0824 2.97088C3.90955 3.44261 4.08827 3.72322 4.89772 4.25092C5.2295 4.46719 5.56377 4.69132 5.64059 4.74896L5.78025 4.85369L5.58017 5.10449C5.47012 5.24238 5.28207 5.53808 5.16224 5.76155C5.03903 5.99147 4.60466 6.58078 4.16175 7.1191L3.3791 8.07033L3.13995 7.94438C2.75182 7.74 2.19446 7.78236 1.93672 8.03585C1.87364 8.09791 1.66637 8.4255 1.47623 8.76386C0.988791 9.63109 0.997496 9.72266 1.63896 10.4735C1.85578 10.7274 2.02399 10.9433 2.01274 10.9534C2.00149 10.9635 1.82786 10.9346 1.62692 10.8893C1.16887 10.7859 0.914522 10.8375 0.567535 11.1044C0.188783 11.3957 0 11.6974 0 12.0111C0 12.371 0.146109 12.5466 0.775083 12.9424L1.29226 13.2678L1.11376 13.3759C0.714491 13.6177 0.553687 14.1081 0.757561 14.4624C0.9698 14.8312 1.66626 15.2776 2.36736 15.4944C3.15352 15.7375 3.95539 15.4835 4.25258 14.8974C4.28627 14.831 4.33205 14.7767 4.35432 14.7767C4.46951 14.7767 4.50942 14.9734 4.53994 15.6909C4.57888 16.6065 4.69097 17.4465 4.89009 18.3145C5.15738 19.4797 5.34447 19.8767 6.44291 21.6093C7.53638 23.3341 7.78593 23.8682 7.85522 24.6323C7.90304 25.16 8.01365 25.4206 8.28937 25.6553C8.5427 25.8708 8.91546 25.9987 9.2941 26C9.76651 26.0016 10.0506 25.8667 10.3078 25.5187C10.5299 25.218 10.6957 25.1181 11.0628 25.0632C11.6345 24.9779 11.8735 24.6777 11.9297 23.9739C11.9539 23.6714 12.0166 23.3716 12.0953 23.1823C12.8157 21.448 12.8636 20.9497 12.4261 19.7412C12.3274 19.4687 12.2572 19.2392 12.2701 19.2312C12.6309 19.0064 13.3124 18.5248 13.7811 18.1634C14.5411 17.5774 17.7889 14.697 17.8924 14.5172C17.9347 14.4435 18.0071 14.2206 18.0533 14.0219C18.0994 13.8232 18.183 13.6039 18.2392 13.5346C18.3303 13.4222 18.3827 13.4083 18.7246 13.4069C18.9355 13.4061 19.1902 13.3745 19.2908 13.3367C19.6314 13.2088 19.9506 12.7708 19.9518 12.4295C19.9529 12.1395 19.3868 11.2264 18.8476 10.6482L18.4918 10.2668L18.71 10.1092C18.83 10.0226 18.9418 9.95167 18.9586 9.95167C18.9754 9.95167 19.134 10.0349 19.3109 10.1367C19.722 10.373 20.0109 10.4068 20.3764 10.2615C20.5257 10.2022 20.6591 10.1637 20.6729 10.1761C20.6867 10.1885 20.6446 10.3268 20.5795 10.4834C20.4311 10.8396 20.4282 11.1679 20.5712 11.4198C20.6577 11.5722 20.8334 11.7024 21.3858 12.0236C22.1912 12.4919 22.4053 12.5638 22.7566 12.4844C23.1682 12.3912 23.3413 12.1804 23.6137 11.4404C23.9422 10.5476 24.1678 9.71794 24.2464 9.11365C24.3549 8.27887 24.3489 8.29716 24.5794 8.11005C24.6978 8.01396 24.9727 7.87418 25.1903 7.79942C25.5738 7.66778 25.8055 7.50525 25.9366 7.27589C25.9747 7.20915 26 6.87648 26 6.44116C26 5.81087 25.9847 5.68913 25.8819 5.49821C25.4338 4.66643 23.9627 4.51036 22.7259 5.16346C22.1465 5.46936 21.7386 5.84642 21.2103 6.56438C20.6786 7.28691 20.4549 7.51343 20.1225 7.6658C19.7111 7.85438 19.6476 7.80272 19.3559 7.0422C19.2403 6.74092 19.0959 6.43746 19.0349 6.36782C18.7832 6.08031 18.2742 5.96567 17.9015 6.11261C17.6776 6.20083 16.9314 6.78287 16.7833 6.98476C16.6073 7.22469 16.6334 7.64751 16.8413 7.92518L17.0086 8.14865L16.7238 8.40823L16.439 8.66782L15.98 8.5479C15.7276 8.48193 15.4451 8.42799 15.3523 8.42799C15.1104 8.42799 14.7426 8.60377 14.6109 8.78235C14.5487 8.86666 14.4628 8.93568 14.4201 8.93573C14.3626 8.93583 13.3568 8.48096 13.238 8.40112C13.229 8.39513 13.2744 8.22158 13.3388 8.01548C13.7314 6.75885 13.1509 5.2467 11.9261 4.336C11.5843 4.08185 10.7132 3.67848 10.3963 3.62759C10.0673 3.57477 10.0251 3.53256 10.1417 3.37278C10.1967 3.29725 10.4162 3.06641 10.6294 2.85985C11.2124 2.29477 11.2297 2.01563 10.7251 1.31647C10.0899 0.436492 9.87542 0.386921 8.75177 0.86038C8.35403 1.02798 8.0084 1.16512 7.98381 1.16512C7.95922 1.16512 7.69792 0.945503 7.40322 0.677132C6.66521 0.00503643 6.64735 -0.00100751 5.39783 5.9063e-05C4.67175 0.000668535 4.33188 0.0204256 4.21087 0.0689294ZM6.8644 1.41388C7.36478 1.85722 7.53791 1.97912 7.7341 2.02645C8.06311 2.10584 8.22352 2.06668 8.99928 1.71775L9.66166 1.41988L9.8895 1.72141C10.0149 1.88729 10.1174 2.03793 10.1174 2.05627C10.1174 2.0746 9.95845 2.24398 9.76413 2.43267C9.56987 2.62135 9.3128 2.92654 9.19298 3.11086C8.98289 3.43398 8.96565 3.44713 8.71254 3.47649C7.99907 3.55922 7.2336 3.80758 6.66239 4.14157L6.5139 4.22842L5.7711 3.75065C5.0969 3.31706 5.03128 3.26114 5.06101 3.1459C5.14427 2.82344 5.15371 2.72826 5.11878 2.56106C5.07051 2.32977 4.85007 2.10766 4.39146 1.82822L4.02333 1.60394L4.30255 1.23216L4.58171 0.86038H5.41071H6.23972L6.8644 1.41388ZM10.1174 4.4455C10.6832 4.5968 11.0868 4.81799 11.5353 5.22247C12.1783 5.80239 12.4893 6.44355 12.4906 7.19229C12.492 7.93696 11.8106 9.2455 10.4982 11.0182C9.7149 12.0764 9.3388 12.5271 9.21485 12.5562C9.14946 12.5716 9.04252 12.5413 8.96248 12.4847C8.77952 12.3554 7.1725 10.1816 6.73321 9.46917C6.29799 8.7633 5.96627 8.08953 5.84554 7.66605C5.51336 6.50084 6.43839 5.04359 7.82261 4.55155C8.50307 4.30969 9.44665 4.26606 10.1174 4.4455ZM24.9196 5.74433C25.0691 5.82824 25.0941 5.9322 25.0943 6.4726L25.0944 6.92971L24.6755 7.0708C23.8277 7.35629 23.4259 7.85219 23.3423 8.71648C23.2707 9.45739 23.0202 10.4008 22.6267 11.4114L22.5231 11.6775L22.0148 11.3734C21.7353 11.2061 21.4869 11.0633 21.4628 11.0561C21.4388 11.0488 21.4833 10.8733 21.5617 10.6661C21.6402 10.459 21.7043 10.2368 21.7043 10.1724C21.7043 9.94217 21.5209 9.63856 21.2918 9.48939C21.0241 9.31513 20.6446 9.29161 20.234 9.42382L19.9789 9.506L19.6406 9.3226C19.0258 8.98942 18.7107 9.02086 18.1154 9.47466C17.6785 9.80768 17.5668 9.98022 17.5697 10.3171C17.5722 10.6018 17.6182 10.6776 18.1435 11.2611C18.5537 11.7168 19.0174 12.4122 18.9633 12.4907C18.9439 12.5189 18.7596 12.5419 18.5537 12.5419C18.2869 12.5419 18.1075 12.5731 17.9302 12.6503C17.5414 12.8194 17.1624 13.3563 17.0881 13.8434C17.057 14.0473 16.9546 14.1488 15.2396 15.6761C13.4531 17.267 12.9073 17.7137 12.0109 18.3183C11.4436 18.7009 11.3835 18.7625 11.299 19.0462C11.2356 19.2592 11.244 19.3119 11.4099 19.7425C11.5087 19.9988 11.6306 20.4341 11.6811 20.71C11.7924 21.3192 11.7482 21.5463 11.3133 22.6019C11.0287 23.2925 10.8872 23.8166 10.9194 24.0604C10.9349 24.1771 10.9114 24.1979 10.7248 24.2329C10.2397 24.324 9.71383 24.6716 9.53872 25.017C9.48983 25.1134 9.43404 25.1377 9.26182 25.1377C8.98034 25.1377 8.8946 25.0172 8.84593 24.5536C8.76522 23.7849 8.45085 23.0355 7.71335 21.8539C7.47195 21.4671 7.06363 20.8116 6.80595 20.397C6.54827 19.9825 6.25927 19.4492 6.16375 19.2119C5.83683 18.4001 5.57762 16.9552 5.50657 15.5488C5.4635 14.6963 5.4245 14.5479 5.1744 14.2854C4.6492 13.734 3.85303 13.7817 3.46817 14.3876C3.2626 14.7112 3.1243 14.7803 2.80794 14.717C2.48249 14.652 2.04371 14.4613 1.81706 14.2863L1.62766 14.1401L1.84023 14.014C2.11973 13.8482 2.26087 13.5999 2.26087 13.274C2.26087 12.9188 2.11595 12.743 1.50438 12.3557C1.22918 12.1815 0.989809 12.0262 0.972457 12.0106C0.955048 11.995 1.01089 11.9165 1.09652 11.8362L1.25218 11.6902L1.60109 11.7855C2.05818 11.9105 2.24781 11.9063 2.54574 11.7647C2.98124 11.5578 3.1776 11.028 2.95942 10.6489C2.90838 10.5602 2.69281 10.2855 2.48029 10.0385L2.09402 9.58929L2.34684 9.13696L2.59966 8.68463L2.86831 8.8144C3.08575 8.91943 3.19393 8.9401 3.43601 8.92299C3.81912 8.89581 3.94968 8.80673 4.4278 8.24622C4.64038 7.99704 4.83114 7.78764 4.85171 7.78094C4.87229 7.77423 4.9487 7.94565 5.02156 8.16186C5.24895 8.837 6.08485 10.2972 6.73411 11.1536L6.89447 11.3651L6.69816 11.6272C6.16477 12.3395 6.12424 13.4006 6.59835 14.2418C6.91108 14.7968 7.6345 15.3164 8.36137 15.5083C8.73493 15.6069 9.47785 15.6128 9.86304 15.5202C10.7878 15.2979 11.5215 14.6946 11.8469 13.8891C12.1675 13.0954 12.057 12.3223 11.5056 11.5007L11.4033 11.3484L11.7471 10.8706C11.9363 10.6078 12.2602 10.1105 12.467 9.76543L12.843 9.13808L13.1334 9.28547C13.9441 9.69691 14.085 9.74852 14.3983 9.74852C14.7676 9.74852 15.0486 9.63886 15.2444 9.41828L15.3887 9.25576L15.8194 9.37516C16.5498 9.57771 16.7151 9.54175 17.3726 9.03746C17.827 8.689 17.9739 8.46944 17.9739 8.139C17.9739 7.94991 17.9336 7.83203 17.8081 7.65417L17.6422 7.41916L17.9585 7.18518C18.1325 7.05648 18.293 6.96922 18.3152 6.99126C18.3374 7.01326 18.4127 7.19127 18.4826 7.38681C18.7976 8.26877 19.1705 8.63115 19.7633 8.63115C20.1502 8.63115 20.6014 8.47634 21.0185 8.20051C21.2849 8.02422 21.4543 7.84183 21.8529 7.30214C22.4619 6.47763 22.8993 6.06664 23.4053 5.84352C23.9697 5.59471 24.5816 5.55464 24.9196 5.74433ZM8.60747 5.70523C7.74862 5.95739 7.23478 6.57682 7.23478 7.36004C7.23478 8.03549 7.62495 8.61002 8.28891 8.91232C8.5826 9.046 8.67648 9.06286 9.12826 9.06286C9.55935 9.06286 9.68438 9.04264 9.94783 8.9304C11.1209 8.43053 11.4305 7.07481 10.5658 6.22465C10.1835 5.84881 9.78425 5.67501 9.25108 5.65246C9.00776 5.64215 8.75041 5.66322 8.60747 5.70523ZM9.51159 6.56763C10.1105 6.79694 10.2869 7.49184 9.85519 7.92122C9.2222 8.5508 8.12952 8.12976 8.20735 7.28625C8.2377 6.95708 8.414 6.72249 8.72701 6.59475C9.00369 6.48185 9.26408 6.47286 9.51159 6.56763ZM8.19203 13.0064C8.42496 13.2606 8.77811 13.4053 9.16545 13.4053C9.64233 13.4053 9.90577 13.256 10.3343 12.7425C10.5314 12.5065 10.7142 12.2791 10.7406 12.2372C10.8172 12.1157 10.8973 12.2304 11.002 12.6112C11.167 13.2121 10.9618 13.8138 10.4431 14.2497C10.0323 14.595 9.73384 14.6994 9.15534 14.7C8.7243 14.7004 8.63398 14.6829 8.29575 14.5333C7.88377 14.351 7.60212 14.0957 7.39508 13.717C7.2215 13.3994 7.20856 12.6735 7.37072 12.3498L7.47839 12.1349L7.75037 12.4781C7.89999 12.6668 8.09872 12.9046 8.19203 13.0064Z" fill="#2E2A2A"/>
</svg>