<svg xmlns="http://www.w3.org/2000/svg" width="15" height="17" viewBox="0 0 15 17" fill="none">
  <path d="M13.2059 15.5997V13.9739C13.2059 13.3271 12.949 12.7068 12.4916 12.2495C12.0343 11.7921 11.414 11.5352 10.7672 11.5352H4.26399C3.61721 11.5352 2.99691 11.7921 2.53957 12.2495C2.08222 12.7068 1.82528 13.3271 1.82528 13.9739V15.5997C1.82528 15.8153 1.73964 16.0221 1.58719 16.1745C1.43474 16.327 1.22798 16.4126 1.01238 16.4126C0.796786 16.4126 0.59002 16.327 0.437571 16.1745C0.285122 16.0221 0.199478 15.8153 0.199478 15.5997V13.9739C0.199478 12.896 0.627703 11.8621 1.38995 11.0999C2.15219 10.3376 3.18602 9.90941 4.26399 9.90941H10.7672C11.8452 9.90941 12.879 10.3376 13.6413 11.0999C14.4035 11.8621 14.8317 12.896 14.8317 13.9739V15.5997C14.8317 15.8153 14.7461 16.0221 14.5936 16.1745C14.4412 16.327 14.2344 16.4126 14.0188 16.4126C13.8032 16.4126 13.5965 16.327 13.444 16.1745C13.2916 16.0221 13.2059 15.8153 13.2059 15.5997ZM3.45109 4.21909C3.45109 3.4152 3.68947 2.62939 4.13609 1.96098C4.5827 1.29257 5.21749 0.77161 5.96018 0.463977C6.70288 0.156343 7.52012 0.075838 8.30856 0.232668C9.09699 0.389499 9.82122 0.776619 10.3897 1.34505C10.9581 1.91348 11.3452 2.63769 11.502 3.42613C11.6589 4.21457 11.5784 5.0318 11.2707 5.77449C10.9631 6.51718 10.4421 7.152 9.77373 7.59861C9.10532 8.04523 8.31949 8.28361 7.51561 8.28361C6.43763 8.28361 5.4038 7.85537 4.64156 7.09313C3.87932 6.33088 3.45109 5.29707 3.45109 4.21909ZM5.0769 4.21909C5.0769 4.70142 5.21993 5.1729 5.4879 5.57394C5.75586 5.97499 6.13674 6.28761 6.58236 6.47219C7.02797 6.65677 7.51831 6.70506 7.99137 6.61096C8.46444 6.51686 8.89897 6.28459 9.24003 5.94353C9.58109 5.60247 9.81336 5.16792 9.90746 4.69485C10.0016 4.22179 9.95326 3.73143 9.76868 3.28582C9.5841 2.8402 9.27152 2.45936 8.87048 2.1914C8.46944 1.92343 7.99794 1.78038 7.51561 1.78038C6.86882 1.78038 6.24853 2.0373 5.79118 2.49465C5.33383 2.95199 5.0769 3.5723 5.0769 4.21909Z" fill="#06152B"/>
</svg>