<svg xmlns="http://www.w3.org/2000/svg" width="20" height="22" viewBox="0 0 20 22" fill="none">
  <path d="M18.2111 20.8082L13.7 16.0238C12.0051 17.4405 9.86412 18.117 7.71462 17.9148C5.56512 17.7127 3.56957 16.6471 2.13625 14.9362C0.702931 13.2252 -0.0599308 10.9981 0.00368098 8.71039C0.0672928 6.42264 0.952643 4.2471 2.47853 2.62871C4.00443 1.01033 6.05554 0.0713719 8.21254 0.00390408C10.3695 -0.0635637 12.4694 0.745549 14.0825 2.26575C15.6957 3.78596 16.7004 5.90238 16.891 8.18218C17.0816 10.462 16.4438 12.7329 15.1081 14.5304L19.62 19.316C19.7788 19.5194 19.8603 19.7783 19.8487 20.0421C19.837 20.3059 19.733 20.5556 19.5569 20.7424C19.3808 20.9291 19.1454 21.0395 18.8966 21.0519C18.6479 21.0642 18.4038 20.9777 18.2121 20.8093L18.2111 20.8082ZM1.99001 8.97387C1.98991 10.3231 2.36478 11.6425 3.06777 12.7671C3.77076 13.8916 4.77068 14.7714 5.94252 15.2966C7.11437 15.8217 8.40613 15.9688 9.65639 15.7196C10.9066 15.4703 12.06 14.8357 12.9721 13.8951C12.9911 13.8707 13.012 13.8463 13.033 13.8241C13.054 13.8018 13.077 13.7795 13.1 13.7594C13.839 12.9531 14.3799 11.9665 14.6751 10.8865C14.9703 9.80648 15.0108 8.66607 14.793 7.56556C14.5752 6.46506 14.1058 5.43817 13.426 4.5752C12.7463 3.71224 11.877 3.03964 10.8947 2.61656C9.91235 2.19348 8.84707 2.03287 7.7925 2.14886C6.73793 2.26485 5.72638 2.65389 4.84682 3.28176C3.96726 3.90963 3.24663 4.7571 2.74831 5.74964C2.24998 6.74218 1.98928 7.84938 1.98903 8.97387H1.99001Z" fill="#99B2C6"/>
</svg>