<svg xmlns="http://www.w3.org/2000/svg" width="20" height="21" viewBox="0 0 20 21" fill="none">
  <path d="M7.58064 17.5742C7.58399 17.4513 7.54747 17.3307 7.47655 17.2304C7.40563 17.13 7.30411 17.0552 7.18719 17.0173C7.0921 16.9749 6.98657 16.9618 6.88397 16.9794C6.78137 16.9971 6.68631 17.0448 6.61085 17.1165L6.56288 17.1653C6.33636 17.3918 6.06743 17.5716 5.77146 17.6942C5.47549 17.8168 5.15826 17.8798 4.8379 17.8798C4.51755 17.8798 4.20032 17.8168 3.90435 17.6942C3.60838 17.5716 3.33945 17.3918 3.11292 17.1653C2.8864 16.9387 2.7067 16.6699 2.58411 16.3739C2.46151 16.0779 2.39841 15.7607 2.39841 15.4403C2.39841 15.12 2.46151 14.8027 2.58411 14.5068C2.7067 14.2108 2.8864 13.9419 3.11292 13.7154L3.1552 13.6731C3.22684 13.5974 3.275 13.5025 3.29387 13.3999C3.31274 13.2974 3.30151 13.1915 3.26153 13.0952C3.22154 12.9989 3.15453 12.9163 3.06858 12.8572C2.98263 12.7982 2.88143 12.7654 2.7772 12.7627H2.63819C1.9914 12.7627 1.37111 12.5057 0.913761 12.0483C0.456414 11.591 0.199478 10.9707 0.199478 10.324C0.199478 9.67718 0.456414 9.05687 0.913761 8.59952C1.37111 8.14217 1.9914 7.88525 2.63819 7.88525C2.76094 7.88866 2.8815 7.85222 2.98187 7.78146C3.08223 7.71069 3.15701 7.60936 3.19503 7.4926C3.2374 7.3975 3.25059 7.29194 3.23293 7.18934C3.21528 7.08674 3.16757 6.99173 3.09585 6.91626L3.04789 6.86823C2.82131 6.64176 2.64156 6.3729 2.51889 6.07696C2.39622 5.78102 2.33305 5.46385 2.33297 5.14349C2.3329 4.82313 2.39592 4.50583 2.51845 4.20982C2.64098 3.91382 2.8206 3.64494 3.04708 3.41835C3.27355 3.19177 3.54244 3.01202 3.83838 2.88935C4.13433 2.76669 4.45153 2.70347 4.77189 2.70339C5.09225 2.70332 5.40949 2.76633 5.70549 2.88886C6.00149 3.01138 6.27046 3.19099 6.49704 3.41746L6.54012 3.45973C6.61547 3.5335 6.71119 3.583 6.81494 3.60183C6.91868 3.62067 7.02569 3.60798 7.12216 3.56542C7.17442 3.54254 7.22891 3.52513 7.28474 3.51342C7.35548 3.46567 7.41354 3.40137 7.45391 3.32617C7.49427 3.25097 7.51573 3.16711 7.51642 3.08176V2.94194C7.51642 2.29516 7.77336 1.67485 8.2307 1.2175C8.68805 0.760155 9.30834 0.503235 9.95513 0.503235C10.6019 0.503235 11.2222 0.760155 11.6796 1.2175C12.1369 1.67485 12.3938 2.29516 12.3938 2.94194V3.01101C12.3943 3.11523 12.4253 3.21702 12.4831 3.30374C12.5409 3.39046 12.623 3.45835 12.719 3.49883C12.8141 3.5412 12.9196 3.55439 13.0222 3.53674C13.1248 3.51908 13.2199 3.47132 13.2954 3.3996L13.3433 3.35167C13.5698 3.12514 13.8388 2.94546 14.1347 2.82287C14.4307 2.70027 14.7479 2.63711 15.0683 2.63711C15.3886 2.63711 15.7059 2.70027 16.0018 2.82287C16.2978 2.94546 16.5667 3.12514 16.7933 3.35167C17.0198 3.5782 17.1995 3.84707 17.3221 4.14304C17.4447 4.43901 17.5078 4.75625 17.5078 5.07661C17.5078 5.39697 17.4447 5.71421 17.3221 6.01018C17.1995 6.30615 17.0198 6.57512 16.7933 6.80165L16.751 6.84392C16.6773 6.91945 16.6278 7.01523 16.609 7.11909C16.5901 7.22295 16.6028 7.33009 16.6453 7.42671C16.6682 7.47897 16.6856 7.53351 16.6973 7.58935C16.7451 7.65999 16.8094 7.71791 16.8846 7.75814C16.9598 7.79836 17.0437 7.81962 17.129 7.82016H17.2704C17.9172 7.82016 18.5375 8.07708 18.9949 8.53442C19.4522 8.99177 19.7092 9.61208 19.7092 10.2589C19.7092 10.9057 19.4522 11.526 18.9949 11.9833C18.5375 12.4407 17.9172 12.6976 17.2704 12.6976H17.2005C17.0966 12.6995 16.9954 12.7313 16.9091 12.7894C16.8229 12.8474 16.7552 12.9291 16.7142 13.0246C16.6733 13.1202 16.6608 13.2256 16.6783 13.3281C16.6958 13.4306 16.7425 13.5258 16.8128 13.6024L16.8616 13.6503C17.0881 13.8768 17.2678 14.1458 17.3904 14.4418C17.513 14.7377 17.5761 15.055 17.5761 15.3753C17.5761 15.6957 17.513 16.0128 17.3904 16.3088C17.2678 16.6048 17.0881 16.8737 16.8616 17.1003C16.635 17.3268 16.3661 17.5065 16.0701 17.6291C15.7742 17.7517 15.4569 17.8148 15.1366 17.8148C14.8162 17.8148 14.499 17.7517 14.203 17.6291C13.9071 17.5065 13.6381 17.3268 13.4116 17.1003L13.3693 17.058C13.2937 16.986 13.1988 16.9376 13.0961 16.9185C12.9935 16.8994 12.8875 16.9105 12.791 16.9505C12.6946 16.9906 12.6119 17.0579 12.5529 17.144C12.4939 17.2302 12.4613 17.3316 12.4589 17.436V17.5742C12.4589 18.221 12.2019 18.8413 11.7446 19.2986C11.2872 19.756 10.6669 20.0129 10.0202 20.0129C9.37338 20.0129 8.75308 19.756 8.29573 19.2986C7.83839 18.8413 7.58145 18.221 7.58145 17.5742H7.58064ZM7.79606 15.5103C8.20428 15.6615 8.55733 15.9325 8.80898 16.2877C9.06064 16.6429 9.19917 17.0658 9.20645 17.5011V17.5742C9.20645 17.7898 9.29209 17.9966 9.44454 18.149C9.59699 18.3015 9.80375 18.3871 10.0194 18.3871C10.2349 18.3871 10.4417 18.3015 10.5942 18.149C10.7466 17.9966 10.8323 17.7898 10.8323 17.5742V17.4319C10.8356 17.0071 10.9639 16.5927 11.201 16.2402C11.4382 15.8878 11.7738 15.6128 12.1661 15.4497C12.5583 15.2865 12.9899 15.2423 13.4071 15.3226C13.8243 15.4029 14.2086 15.6041 14.5123 15.9013L14.561 15.95C14.6366 16.0256 14.7263 16.0855 14.8251 16.1264C14.9239 16.1673 15.0297 16.1884 15.1366 16.1884C15.2435 16.1884 15.3493 16.1673 15.448 16.1264C15.5468 16.0855 15.6365 16.0256 15.7121 15.95C15.7877 15.8744 15.8476 15.7847 15.8885 15.6859C15.9295 15.5872 15.9505 15.4813 15.9505 15.3744C15.9505 15.2676 15.9295 15.1618 15.8885 15.0631C15.8476 14.9643 15.7877 14.8746 15.7121 14.799L15.6576 14.7436C15.3571 14.4367 15.1552 14.047 15.078 13.6244C15.0008 13.2018 15.0517 12.7658 15.2244 12.3724C15.3909 11.9871 15.6663 11.6588 16.0167 11.4277C16.3672 11.1967 16.7775 11.0729 17.1973 11.0718H17.2704C17.486 11.0718 17.6928 10.9862 17.8453 10.8337C17.9977 10.6813 18.0833 10.4745 18.0833 10.2589C18.0833 10.0433 17.9977 9.83657 17.8453 9.68412C17.6928 9.53167 17.486 9.44596 17.2704 9.44596H17.129C16.7088 9.4442 16.2983 9.31965 15.9481 9.08754C15.5978 8.85543 15.3231 8.52595 15.1577 8.13968C15.1285 8.07115 15.1088 7.99891 15.0992 7.92505C14.9662 7.5446 14.9424 7.13447 15.0307 6.74122C15.1189 6.34796 15.3155 5.98725 15.5983 5.70008L15.6471 5.65136C15.7997 5.49872 15.8855 5.29168 15.8855 5.07582C15.8855 4.85995 15.7997 4.65292 15.6471 4.50027C15.4944 4.34763 15.2874 4.26192 15.0715 4.26192C14.8557 4.26192 14.6486 4.34763 14.496 4.50027L14.4407 4.55555C14.1363 4.85142 13.7516 5.05125 13.3345 5.13019C12.9174 5.20914 12.4863 5.16367 12.0948 4.99951C11.7033 4.83534 11.3687 4.55978 11.1327 4.20695C10.8966 3.85411 10.7696 3.43959 10.7672 3.01508V2.94194C10.7672 2.72635 10.6816 2.51955 10.5291 2.3671C10.3767 2.21465 10.1699 2.12904 9.95432 2.12904C9.73872 2.12904 9.53196 2.21465 9.37951 2.3671C9.22706 2.51955 9.14141 2.72635 9.14141 2.94194V3.08335C9.13981 3.50367 9.01528 3.91438 8.78316 4.2648C8.55104 4.61521 8.22148 4.89004 7.83508 5.05547C7.76656 5.08472 7.69435 5.10444 7.62047 5.11402C7.23994 5.24683 6.8298 5.27035 6.43656 5.18199C6.04332 5.09363 5.68269 4.89693 5.39555 4.61409L5.34678 4.56527C5.19403 4.41263 4.9869 4.32694 4.77096 4.32702C4.55501 4.32709 4.34795 4.41302 4.1953 4.56577C4.04266 4.71852 3.95695 4.92556 3.95703 5.14151C3.9571 5.35745 4.04296 5.56451 4.19571 5.71715L4.25099 5.77252C4.54788 6.07272 4.74912 6.45409 4.82928 6.86863C4.90943 7.28316 4.86491 7.71224 4.70133 8.10148C4.55012 8.5097 4.27917 8.86268 3.92395 9.11433C3.56873 9.36599 3.1458 9.50458 2.71054 9.51185H2.63819C2.42259 9.51185 2.21583 9.59746 2.06338 9.74991C1.91093 9.90236 1.82528 10.1092 1.82528 10.3248C1.82528 10.5404 1.91093 10.7471 2.06338 10.8995C2.21583 11.052 2.42259 11.1377 2.63819 11.1377H2.77963C3.20469 11.1405 3.61951 11.2684 3.97235 11.5054C4.32519 11.7425 4.60043 12.0782 4.76375 12.4706C4.92708 12.8631 4.97125 13.2948 4.89076 13.7122C4.81027 14.1296 4.60868 14.5141 4.31114 14.8177L4.26156 14.8664C4.10892 15.0191 4.0232 15.2263 4.02328 15.4422C4.02336 15.6582 4.10921 15.8652 4.26196 16.0179C4.41471 16.1705 4.62184 16.2563 4.83778 16.2562C5.05373 16.2561 5.2608 16.1702 5.41344 16.0175L5.46872 15.9622C5.87402 15.5665 6.41755 15.3444 6.98397 15.3428C7.26338 15.3414 7.54 15.3985 7.79606 15.5103ZM6.7027 10.2581C6.7027 9.61497 6.89341 8.98629 7.2507 8.45157C7.60799 7.91684 8.11582 7.50005 8.70998 7.25394C9.30413 7.00784 9.95792 6.94351 10.5887 7.06898C11.2194 7.19444 11.7988 7.50414 12.2536 7.95888C12.7083 8.41363 13.018 8.99294 13.1435 9.62369C13.2689 10.2544 13.2045 10.9083 12.9584 11.5024C12.7123 12.0966 12.2955 12.6044 11.7608 12.9617C11.2261 13.319 10.5974 13.5097 9.95432 13.5097C9.09194 13.5097 8.26488 13.1671 7.65508 12.5573C7.04528 11.9475 6.7027 11.1205 6.7027 10.2581ZM8.32851 10.2581C8.32851 10.5796 8.42386 10.8939 8.60251 11.1613C8.78115 11.4286 9.03507 11.6371 9.33215 11.7601C9.62923 11.8832 9.95612 11.9154 10.2715 11.8526C10.5869 11.7899 10.8766 11.635 11.1039 11.4077C11.3313 11.1803 11.4862 10.8906 11.5489 10.5752C11.6116 10.2598 11.5794 9.93297 11.4564 9.63589C11.3333 9.33882 11.1249 9.08489 10.8576 8.90625C10.5902 8.7276 10.2759 8.63227 9.95432 8.63227C9.52313 8.63227 9.10959 8.80358 8.8047 9.10848C8.4998 9.41338 8.32851 9.82688 8.32851 10.2581Z" fill="#06152B"/>
</svg>