<svg xmlns="http://www.w3.org/2000/svg" width="17" height="23" viewBox="0 0 17 23" fill="none">
  <path d="M10.7682 22.7673H10.7113H5.89076C4.92211 22.7901 3.95293 22.763 2.98707 22.6861C2.62958 22.6959 2.27383 22.6328 1.94155 22.5005C1.60927 22.3683 1.30744 22.1697 1.05448 21.9169C0.801524 21.6641 0.602753 21.3624 0.470309 21.0302C0.337866 20.698 0.27453 20.3423 0.284167 19.9848C0.205883 19.0176 0.177935 18.0471 0.200437 17.077V5.69636C0.177665 4.72771 0.204796 3.75851 0.281726 2.79266C0.271644 2.43517 0.334583 2.07938 0.466694 1.74705C0.598804 1.41473 0.797312 1.11287 1.05008 0.859877C1.30284 0.606883 1.60455 0.408112 1.93676 0.275702C2.26897 0.143291 2.6247 0.080032 2.98219 0.0897919C3.94961 0.0115234 4.92044 -0.0164462 5.89076 0.00604062H10.6381C10.6768 -0.000437985 10.7159 -0.00397111 10.7552 -0.00452752C10.8125 -0.00534965 10.8697 0.000118011 10.9259 0.0117464C11.5527 -0.0418336 12.1832 0.0577565 12.763 0.301948C13.4531 0.724484 14.0716 1.25406 14.5953 1.87085C15.213 2.39579 15.7429 3.01599 16.165 3.70801C16.4082 4.28639 16.5075 4.9151 16.4544 5.54027C16.474 5.63725 16.4756 5.73697 16.4593 5.83454V17.077C16.4822 18.0462 16.4551 19.0159 16.378 19.9823C16.3877 20.3398 16.3243 20.6956 16.1919 21.0278C16.0594 21.36 15.8607 21.6616 15.6077 21.9144C15.3548 22.1672 15.0529 22.3658 14.7206 22.4981C14.3884 22.6303 14.0326 22.6934 13.6751 22.6836C12.7491 22.7589 11.8198 22.7861 10.8909 22.7649L10.7682 22.7673ZM3.16591 1.70255C2.9925 1.67159 2.81417 1.68305 2.64613 1.73589C2.47809 1.78873 2.32532 1.88141 2.20084 2.00605C2.07636 2.13069 1.98386 2.28359 1.93124 2.4517C1.87861 2.6198 1.86741 2.79815 1.89859 2.97152C1.83112 3.58282 1.82624 4.47701 1.82624 5.69636V17.077C1.82624 18.2964 1.83112 19.1946 1.89941 19.8019C1.8684 19.9752 1.8798 20.1536 1.93264 20.3216C1.98548 20.4896 2.07819 20.6424 2.20286 20.7668C2.32752 20.8912 2.48044 20.9836 2.64856 21.0361C2.81669 21.0887 2.99502 21.0997 3.16835 21.0683C3.77477 21.1366 4.67628 21.1415 5.89157 21.1415H10.769H10.8259C12.0079 21.1415 12.8964 21.1358 13.4914 21.0692C13.6647 21.1002 13.843 21.0888 14.011 21.0361C14.179 20.9834 14.3318 20.8909 14.4564 20.7665C14.581 20.642 14.6737 20.4894 14.7266 20.3214C14.7795 20.1535 14.7911 19.9752 14.7603 19.8019C14.8294 19.1954 14.8335 18.2939 14.8335 17.077V6.50927H10.7682C10.5526 6.50927 10.3458 6.42361 10.1934 6.27116C10.0409 6.11871 9.95528 5.91196 9.95528 5.69636V1.63185H5.89076C4.6714 1.63185 3.77233 1.63672 3.16591 1.70419V1.70255ZM11.5811 4.88346H14.8132C14.8088 4.72826 14.7737 4.57549 14.7099 4.43394C14.344 3.91497 13.9193 3.44004 13.4443 3.01865C13.0238 2.5444 12.5503 2.12002 12.0331 1.7538C11.8907 1.68985 11.7371 1.65475 11.5811 1.65055V4.88346ZM12.394 18.7028H4.24219C4.13544 18.7013 4.03003 18.6788 3.93197 18.6366C3.83392 18.5943 3.74514 18.5332 3.67072 18.4567C3.59629 18.3801 3.53766 18.2897 3.49819 18.1905C3.45872 18.0913 3.43918 17.9853 3.44067 17.8785C3.44216 17.7718 3.46467 17.6664 3.5069 17.5683C3.54914 17.4702 3.61027 17.3815 3.68681 17.3071C3.76335 17.2326 3.8538 17.174 3.953 17.1345C4.0522 17.095 4.1582 17.0755 4.26495 17.077H12.4176C12.5243 17.0778 12.6299 17.0995 12.7282 17.1411C12.8265 17.1826 12.9157 17.2431 12.9907 17.3191C13.0657 17.3951 13.1249 17.4852 13.1651 17.5841C13.2052 17.683 13.2255 17.7889 13.2248 17.8956C13.224 18.0024 13.2023 18.1079 13.1607 18.2063C13.1192 18.3046 13.0587 18.3938 12.9827 18.4687C12.9066 18.5437 12.8166 18.603 12.7177 18.6431C12.6188 18.6833 12.5129 18.7036 12.4062 18.7028H12.394ZM12.394 15.4512H4.24219C4.13544 15.4497 4.03003 15.4272 3.93197 15.385C3.83392 15.3427 3.74514 15.2816 3.67072 15.2051C3.59629 15.1285 3.53766 15.0381 3.49819 14.9389C3.45872 14.8397 3.43918 14.7337 3.44067 14.6269C3.44216 14.5202 3.46467 14.4147 3.5069 14.3167C3.54914 14.2186 3.61027 14.1299 3.68681 14.0555C3.76335 13.981 3.8538 13.9224 3.953 13.8829C4.0522 13.8434 4.1582 13.8239 4.26495 13.8254H12.4176C12.6332 13.8269 12.8393 13.914 12.9907 14.0675C13.1421 14.221 13.2263 14.4284 13.2248 14.644C13.2233 14.8596 13.1362 15.0657 12.9827 15.2171C12.8291 15.3685 12.6218 15.4527 12.4062 15.4512H12.394ZM12.394 12.1996H4.24219C4.13544 12.1981 4.03003 12.1756 3.93197 12.1334C3.83392 12.0911 3.74514 12.03 3.67072 11.9534C3.59629 11.8769 3.53766 11.7865 3.49819 11.6873C3.45872 11.5881 3.43918 11.4821 3.44067 11.3753C3.44216 11.2686 3.46467 11.1631 3.5069 11.0651C3.54914 10.967 3.61027 10.8783 3.68681 10.8039C3.76335 10.7294 3.8538 10.6708 3.953 10.6313C4.0522 10.5918 4.1582 10.5723 4.26495 10.5738H12.4176C12.5243 10.5745 12.6299 10.5963 12.7282 10.6378C12.8265 10.6794 12.9157 10.7399 12.9907 10.8159C13.0657 10.8919 13.1249 10.9819 13.1651 11.0809C13.2052 11.1798 13.2255 11.2856 13.2248 11.3924C13.224 11.4991 13.2023 11.6047 13.1607 11.703C13.1192 11.8014 13.0587 11.8905 12.9827 11.9655C12.9066 12.0405 12.8166 12.0997 12.7177 12.1399C12.6188 12.1801 12.5129 12.2003 12.4062 12.1996H12.394Z" fill="#06152B"/>
</svg>