<svg width="17" height="24" viewBox="0 0 17 24" fill="none" xmlns="http://www.w3.org/2000/svg">
<path d="M10.5765 23.271H10.5196H5.69909C4.73044 23.2937 3.76126 23.2666 2.79541 23.1897C2.43791 23.1995 2.08216 23.1364 1.74988 23.0042C1.41761 22.8719 1.11577 22.6733 0.862815 22.4205C0.609859 22.1677 0.411087 21.866 0.278644 21.5338C0.1462 21.2016 0.082864 20.8459 0.0925011 20.4884C0.0142169 19.5213 -0.013731 18.5507 0.00877158 17.5806V6.19999C-0.0140009 5.23134 0.0131306 4.26215 0.0900607 3.29629C0.0799781 2.9388 0.142917 2.58302 0.275028 2.25069C0.407139 1.91836 0.605647 1.6165 0.858412 1.36351C1.11118 1.11051 1.41289 0.911744 1.7451 0.779333C2.07731 0.646923 2.43303 0.583664 2.79053 0.593423C3.75795 0.515155 4.72878 0.487185 5.69909 0.509672H10.4464C10.4851 0.503194 10.5243 0.49966 10.5635 0.499104C10.6208 0.498282 10.6781 0.50375 10.7342 0.515378C11.3611 0.461798 11.9916 0.561388 12.5714 0.80558C13.2614 1.22812 13.8799 1.75769 14.4037 2.37448C15.0213 2.89943 15.5512 3.51963 15.9734 4.21165C16.2166 4.79003 16.3159 5.41873 16.2628 6.0439C16.2823 6.14088 16.2839 6.2406 16.2676 6.33817V17.5806C16.2906 18.5498 16.2634 19.5195 16.1864 20.4859C16.196 20.8434 16.1327 21.1992 16.0002 21.5314C15.8678 21.8636 15.669 22.1653 15.416 22.4181C15.1631 22.6709 14.8613 22.8695 14.529 23.0017C14.1967 23.1339 13.8409 23.1971 13.4835 23.1872C12.5574 23.2625 11.6281 23.2897 10.6993 23.2685L10.5765 23.271ZM2.97424 2.20618C2.80083 2.17522 2.62251 2.18668 2.45446 2.23952C2.28642 2.29237 2.13365 2.38504 2.00917 2.50968C1.88469 2.63432 1.7922 2.78722 1.73957 2.95533C1.68694 3.12344 1.67574 3.30178 1.70693 3.47515C1.63946 4.08645 1.63458 4.98064 1.63458 6.19999V17.5806C1.63458 18.8 1.63946 19.6982 1.70774 20.3055C1.67673 20.4789 1.68814 20.6572 1.74098 20.8252C1.79382 20.9932 1.88653 21.146 2.01119 21.2704C2.13586 21.3948 2.28878 21.4873 2.4569 21.5398C2.62502 21.5923 2.80336 21.6033 2.97668 21.572C3.58311 21.6403 4.48462 21.6452 5.69991 21.6452H10.5773H10.6342C11.8162 21.6452 12.7047 21.6395 13.2997 21.5728C13.4731 21.6038 13.6513 21.5925 13.8194 21.5398C13.9874 21.4871 14.1402 21.3945 14.2648 21.2701C14.3894 21.1457 14.482 20.993 14.535 20.8251C14.5879 20.6571 14.5994 20.4789 14.5687 20.3055C14.6378 19.6991 14.6418 18.7976 14.6418 17.5806V7.0129H10.5765C10.3609 7.0129 10.1542 6.92724 10.0017 6.77479C9.84925 6.62234 9.76361 6.41559 9.76361 6.19999V2.13548H5.69909C4.47974 2.13548 3.58067 2.14035 2.97424 2.20782V2.20618ZM11.3894 5.38709H14.6215C14.6172 5.2319 14.5821 5.07912 14.5183 4.93757C14.1524 4.4186 13.7276 3.94367 13.2526 3.52229C12.8322 3.04803 12.3587 2.62365 11.8414 2.25743C11.699 2.19348 11.5454 2.15838 11.3894 2.15418V2.15418V5.38709ZM12.2023 19.2064H4.05053C3.94377 19.205 3.83836 19.1824 3.74031 19.1402C3.64225 19.098 3.55348 19.0368 3.47905 18.9603C3.40462 18.8838 3.346 18.7933 3.30653 18.6941C3.26706 18.5949 3.24751 18.4889 3.249 18.3822C3.2505 18.2754 3.273 18.17 3.31524 18.0719C3.35747 17.9739 3.4186 17.8851 3.49514 17.8107C3.57169 17.7363 3.66214 17.6776 3.76134 17.6381C3.86053 17.5987 3.96654 17.5791 4.07329 17.5806H12.2259C12.3326 17.5814 12.4382 17.6032 12.5365 17.6447C12.6349 17.6862 12.7241 17.7468 12.799 17.8228C12.874 17.8988 12.9332 17.9888 12.9734 18.0877C13.0136 18.1866 13.0339 18.2925 13.0331 18.3992C13.0324 18.506 13.0106 18.6116 12.969 18.7099C12.9275 18.8082 12.867 18.8974 12.791 18.9724C12.715 19.0473 12.6249 19.1066 12.526 19.1468C12.4271 19.1869 12.3213 19.2072 12.2145 19.2064H12.2023ZM12.2023 15.9548H4.05053C3.94377 15.9533 3.83836 15.9308 3.74031 15.8886C3.64225 15.8464 3.55348 15.7852 3.47905 15.7087C3.40462 15.6321 3.346 15.5417 3.30653 15.4425C3.26706 15.3433 3.24751 15.2373 3.249 15.1306C3.2505 15.0238 3.273 14.9184 3.31524 14.8203C3.35747 14.7223 3.4186 14.6335 3.49514 14.5591C3.57169 14.4847 3.66214 14.426 3.76134 14.3865C3.86053 14.3471 3.96654 14.3275 4.07329 14.329H12.2259C12.4415 14.3305 12.6477 14.4176 12.799 14.5712C12.9504 14.7247 13.0346 14.932 13.0331 15.1476C13.0316 15.3632 12.9445 15.5694 12.791 15.7207C12.6375 15.8721 12.4301 15.9563 12.2145 15.9548H12.2023ZM12.2023 12.7032H4.05053C3.94377 12.7017 3.83836 12.6792 3.74031 12.637C3.64225 12.5948 3.55348 12.5336 3.47905 12.4571C3.40462 12.3805 3.346 12.2901 3.30653 12.1909C3.26706 12.0917 3.24751 11.9857 3.249 11.879C3.2505 11.7722 3.273 11.6668 3.31524 11.5687C3.35747 11.4707 3.4186 11.3819 3.49514 11.3075C3.57169 11.2331 3.66214 11.1744 3.76134 11.1349C3.86053 11.0954 3.96654 11.0759 4.07329 11.0774H12.2259C12.3326 11.0782 12.4382 11.0999 12.5365 11.1415C12.6349 11.183 12.7241 11.2435 12.799 11.3195C12.874 11.3956 12.9332 11.4856 12.9734 11.5845C13.0136 11.6834 13.0339 11.7893 13.0331 11.896C13.0324 12.0028 13.0106 12.1083 12.969 12.2067C12.9275 12.305 12.867 12.3942 12.791 12.4691C12.715 12.5441 12.6249 12.6034 12.526 12.6435C12.4271 12.6837 12.3213 12.704 12.2145 12.7032H12.2023Z" fill="white"/>
</svg>
