<svg xmlns="http://www.w3.org/2000/svg" width="22" height="18" viewBox="0 0 22 18" fill="none">
  <path d="M5.0771 0.696331C4.26354 0.677291 3.44953 0.700625 2.63839 0.76624C2.32568 0.760277 2.01497 0.817455 1.72488 0.934387C1.43479 1.05132 1.17128 1.22561 0.950119 1.44677C0.728957 1.66793 0.554693 1.93143 0.43776 2.22152C0.320827 2.51161 0.263628 2.82233 0.269591 3.13504C0.203827 3.94617 0.180493 4.76018 0.199682 5.57375V11.2641C0.199682 13.0931 0.0858745 12.5493 0.715874 13.4809C1.05067 13.9353 1.54385 14.2474 2.09781 14.3555C2.55304 14.4453 3.01576 14.4916 3.47975 14.4938C3.4895 14.7864 3.49926 15.0758 3.52771 15.3253C3.52122 15.6378 3.57781 15.9484 3.6941 16.2384C3.8104 16.5285 3.984 16.7922 4.20454 17.0136C4.42507 17.2351 4.688 17.4098 4.9776 17.5273C5.2672 17.6447 5.57752 17.7025 5.89 17.6973C6.32247 17.7461 6.84354 17.7584 7.41908 17.7624C7.45119 17.7661 7.4835 17.7677 7.51581 17.7673H16.4577C17.2713 17.7864 18.0853 17.7631 18.8965 17.6973C19.2092 17.7034 19.52 17.6463 19.8101 17.5294C20.1002 17.4125 20.3638 17.2383 20.585 17.0171C20.8062 16.7959 20.9804 16.5324 21.0973 16.2422C21.2142 15.9521 21.2713 15.6413 21.2653 15.3286C21.3309 14.5175 21.3542 13.7034 21.3352 12.8899V11.2641C21.3355 11.2318 21.3339 11.1994 21.3303 11.1673C21.3254 10.5926 21.314 10.0732 21.2653 9.64154C21.2718 9.32853 21.215 9.0174 21.0983 8.72688C20.9816 8.43635 20.8074 8.17242 20.5862 7.95089C20.3649 7.72935 20.1012 7.55476 19.8109 7.43766C19.5205 7.32057 19.2095 7.26337 18.8965 7.26947C18.6453 7.24101 18.3542 7.23206 18.06 7.22149C18.0761 7.15388 18.0835 7.08452 18.0819 7.01504C18.0975 6.36553 18.0485 5.71607 17.9356 5.07625C17.8357 4.5171 17.5304 4.0155 17.0796 3.66995C16.1488 3.01963 16.6813 3.13504 14.8328 3.13504H12.6745C11.8724 3.1806 11.069 3.07273 10.3073 2.8172C9.98527 2.67991 9.70494 2.4604 9.49442 2.18068C9.11594 1.73211 8.63954 1.37642 8.10192 1.14099C7.15161 0.802007 6.14433 0.651537 5.13645 0.697969H5.07954L5.0771 0.696331ZM5.0771 2.32214C5.88906 2.2766 6.70232 2.38442 7.47435 2.63998C7.79899 2.77592 8.08174 2.99557 8.29376 3.2765C8.66918 3.72382 9.14186 4.07943 9.6757 4.31619C10.6365 4.66191 11.6564 4.81306 12.6761 4.76085H14.8319C16.6789 4.76085 15.9765 4.8844 16.1448 5.00471C16.2261 5.06405 16.2765 5.10631 16.3448 5.42416C16.4283 5.95671 16.465 6.49557 16.4545 7.03454C16.4543 7.09107 16.46 7.1475 16.4716 7.20283H15.9253C15.1232 7.24829 14.3198 7.14038 13.5581 6.88494C13.2361 6.74756 12.9558 6.52811 12.7452 6.24847C12.3668 5.79988 11.8904 5.44418 11.3527 5.20878C10.4018 4.86985 9.39403 4.71934 8.38562 4.76571H8.32871C7.51515 4.74665 6.70114 4.76998 5.89 4.83562C5.57768 4.82956 5.26733 4.88653 4.97752 5.00312C4.68771 5.11971 4.42438 5.29355 4.20326 5.51421C3.98214 5.73487 3.80778 5.99785 3.69059 6.28742C3.5734 6.57699 3.51579 6.88722 3.5212 7.19956C3.45545 8.01069 3.43211 8.8247 3.45129 9.63827V12.8647C3.11798 12.8593 2.78558 12.8281 2.45711 12.7712C2.15553 12.7013 2.12139 12.659 2.06204 12.5712C1.94336 12.3957 1.82549 13.0923 1.82549 11.2649V5.57454C1.82549 4.56085 1.83037 3.81221 1.88564 3.32041C1.94092 2.8286 2.03603 2.66029 2.10025 2.59607C2.16447 2.53185 2.33112 2.43839 2.82292 2.38312C3.31473 2.32784 4.06422 2.32214 5.0771 2.32214ZM8.32871 6.38665C9.14067 6.34106 9.95395 6.44888 10.726 6.70449C11.0506 6.84037 11.3334 7.06004 11.5454 7.34101C11.9208 7.78833 12.3935 8.14394 12.9273 8.38071C13.8881 8.72638 14.908 8.87753 15.9277 8.82536H16.4577C17.4714 8.82536 18.2201 8.83022 18.7119 8.8855C19.2037 8.94078 19.372 9.03592 19.4362 9.10014C19.5004 9.16436 19.5939 9.33103 19.6492 9.82284C19.7045 10.3146 19.7094 11.0641 19.7094 12.077V12.8899C19.7094 13.9028 19.7045 14.6522 19.6492 15.144C19.5939 15.6358 19.5004 15.8025 19.4362 15.8667C19.372 15.9309 19.2045 16.0293 18.7119 16.0814C18.2193 16.1334 17.4714 16.1415 16.4577 16.1415H8.32871C7.31502 16.1415 6.56634 16.1366 6.07453 16.0814C5.58273 16.0261 5.41445 15.9309 5.35024 15.8667C5.28602 15.8025 5.19253 15.6366 5.13726 15.144C5.08198 14.6514 5.0771 13.9028 5.0771 12.8899V9.63827C5.0771 8.62458 5.08198 7.87588 5.13726 7.38408C5.19253 6.89227 5.28764 6.72401 5.35186 6.65979C5.41608 6.59557 5.58273 6.50207 6.07453 6.44679C6.56634 6.39151 7.31584 6.38665 8.32871 6.38665Z" fill="#06152B"/>
</svg>